<svg width="16" height="16" viewBox="0 0 16 16" fill="none" xmlns="http://www.w3.org/2000/svg">
<path fill-rule="evenodd" clip-rule="evenodd" d="M3.36176 1.73612C3.34251 0.800371 2.71887 0.0879059 1.70575 0.0879059C0.692361 0.0879059 0.03022 0.800371 0.03022 1.73612C0.03022 2.65154 0.673111 3.38461 1.66698 3.38461H1.68623C2.71887 3.38461 3.36176 2.65154 3.36176 1.73612ZM3.36176 15.8989V5.44247H0.129926V15.8989H3.36176ZM8.63431 9.94135V15.8989H5.38598C5.38598 15.8989 5.4327 6.38041 5.38598 5.37937H8.63399L8.61063 6.77788C9.0769 6.04991 9.91662 4.98038 11.8297 4.98038C14.1629 4.98038 15.9121 6.50513 15.9121 9.78193V15.8989H12.6584V9.94135C12.6584 8.50751 11.8537 7.77923 10.5704 7.77923C9.59083 7.77923 9.00745 8.43901 8.75111 9.07638C8.65736 9.30367 8.63431 9.62251 8.63431 9.94135Z" fill="#0078B5"/>
</svg>
